# File created by Blade
# Date/Time:  Wed Sep 24 19:25:39 2014
# Frame Rate: 120.000 fps
#------------------------------------------------------
:FULLY-SPECIFIED
:DEGREES
2124
root -15.578440 32.950392 -4.560800 22.155722 29.942276 7.740160
Spine -21.526202 6.636770 1.913727
Head 11.869815 -0.877692 -0.956263
LeftShoulder -15.132484 25.582734 6.089188
LeftArm 20.066780 26.556561 -73.047677
LeftForeArm 6.411444 0.000000 30.169906
LeftHand -26.021581 -0.000000 -2.537925
LeftHandThumb1 -26.253704 0.000000 33.147579
RightShoulder -18.545665 9.185393 -29.140240
RightArm -15.495850 18.058344 65.258488
RightForeArm -19.540911 -0.000000 127.753921
RightHand -13.550721 -0.000000 -5.467734
RightHandThumb1 -24.326973 -0.000000 -32.862282
LeftUpLeg -5.973728 14.377741 0.005609
LeftLeg 39.745831 -0.000000 -0.000000
LeftFoot 37.797944 14.327362 -18.589027
LeftToeBase 27.245332 -0.000000 -0.000000
RightUpLeg -15.967964 -1.920924 1.744522
RightLeg 0.952610 -0.000000 -0.000000
RightFoot -9.285362 -13.287771 -4.618257
RightToeBase -0.328655 -0.000000 0.000000
2125
root -15.593810 32.938711 -4.563977 22.030033 30.245940 7.665799
Spine -21.339864 6.621688 2.181351
Head 11.675456 -0.940119 -1.114336
LeftShoulder -15.063835 25.484031 6.073557
LeftArm 19.927465 26.294593 -73.256511
LeftForeArm 6.902100 0.000000 30.761926
LeftHand -25.967362 -0.000000 -2.777157
LeftHandThumb1 -26.253704 0.000000 33.147579
RightShoulder -18.476766 9.269881 -29.260242
RightArm -15.699634 18.311260 65.179952
RightForeArm -19.691053 0.000000 127.908483
RightHand -13.632167 -0.000000 -5.389920
RightHandThumb1 -24.326973 -0.000000 -32.862282
LeftUpLeg -6.739685 14.431570 0.298702
LeftLeg 42.883675 -0.000000 -0.000000
LeftFoot 37.474861 14.590282 -18.858524
LeftToeBase 28.053765 -0.000000 -0.000000
RightUpLeg -15.872269 -2.172072 1.939247
RightLeg 0.944625 -0.000000 -0.000000
RightFoot -9.322076 -13.295698 -4.730019
RightToeBase -0.267634 -0.000000 0.000000
2126
root -15.610881 32.927130 -4.569090 21.888725 30.552011 7.541564
Spine -21.156257 6.628468 2.503933
Head 11.475484 -1.020711 -1.283620
LeftShoulder -15.053941 25.443204 6.011860
LeftArm 19.925555 26.180494 -73.363513
LeftForeArm 7.221373 -0.000000 31.314181
LeftHand -26.057382 -0.000000 -2.721465
LeftHandThumb1 -26.253704 0.000000 33.147579
RightShoulder -18.410712 9.305103 -29.376096
RightArm -15.848679 18.559002 65.097282
RightForeArm -19.780665 -0.000000 128.053467
RightHand -13.696194 -0.000000 -5.403666
RightHandThumb1 -24.326973 -0.000000 -32.862282
LeftUpLeg -7.519381 14.527913 0.628350
LeftLeg 46.087889 -0.000000 -0.000000
LeftFoot 37.467871 14.519744 -18.442212
LeftToeBase 27.646344 -0.000000 -0.000000
RightUpLeg -15.722143 -2.294752 2.139989
RightLeg 0.787585 -0.000000 -0.000000
RightFoot -9.252327 -13.396366 -4.772109
RightToeBase -0.260972 -0.000000 0.000000
2127
root -15.624290 32.917157 -4.577148 21.796624 30.809245 7.477201
Spine -21.004828 6.684604 2.723218
Head 11.292382 -1.131969 -1.415917
LeftShoulder -14.990697 25.380178 5.975371
LeftArm 19.875931 26.059391 -73.455995
LeftForeArm 7.481062 0.000000 31.893460
LeftHand -26.111723 -0.000000 -2.523739
LeftHandThumb1 -26.253704 0.000000 33.147579
RightShoulder -18.368152 9.272699 -29.462439
RightArm -15.962447 18.831068 65.024783
RightForeArm -19.800549 -0.000000 128.200134
RightHand -13.714188 -0.000000 -5.291492
RightHandThumb1 -24.326973 -0.000000 -32.862282
LeftUpLeg -8.303234 14.627689 0.888175
LeftLeg 49.315269 -0.000000 -0.000000
LeftFoot 37.376061 14.727361 -18.317038
LeftToeBase 27.554170 -0.000000 -0.000000
RightUpLeg -15.575493 -2.390861 2.260190
RightLeg 0.591756 -0.000000 -0.000000
RightFoot -9.183147 -13.475669 -4.771697
RightToeBase -0.272907 -0.000000 0.000000
2128
root -15.637190 32.908494 -4.584253 21.702600 31.083675 7.400695
Spine -20.866299 6.723610 2.965241
Head 11.125250 -1.252067 -1.574443
LeftShoulder -14.966983 25.327460 5.912287
LeftArm 19.877767 25.986283 -73.510949
LeftForeArm 7.638635 -0.000000 32.380744
LeftHand -26.085627 -0.000000 -2.558781
LeftHandThumb1 -26.253704 0.000000 33.147579
RightShoulder -18.321345 9.273611 -29.531788
RightArm -16.080426 19.065322 64.900020
RightForeArm -19.792362 0.000000 128.321561
RightHand -13.720193 0.000000 -5.291600
RightHandThumb1 -24.326973 -0.000000 -32.862282
LeftUpLeg -9.065518 14.736217 1.180443
LeftLeg 52.529577 -0.000000 -0.000000
LeftFoot 37.183634 14.914432 -18.397539
LeftToeBase 28.208062 -0.000000 -0.000000
RightUpLeg -15.432301 -2.546704 2.401631
RightLeg 0.400758 -0.000000 -0.000000
RightFoot -9.122731 -13.469177 -4.711864
RightToeBase -0.317749 -0.000000 0.000000
2129
root -15.651900 32.899596 -4.589806 21.611084 31.315475 7.305945
Spine -20.748642 6.811799 3.176348
Head 10.969727 -1.390016 -1.676190
LeftShoulder -14.920828 25.304544 5.864042
LeftArm 19.862828 25.878173 -73.570341
LeftForeArm 7.902654 -0.000000 32.909477
LeftHand -26.148331 -0.000000 -2.530438
LeftHandThumb1 -26.253704 0.000000 33.147579
RightShoulder -18.305201 9.240748 -29.580898
RightArm -16.156279 19.299203 64.782341
RightForeArm -19.817110 -0.000000 128.417629
RightHand -13.703685 -0.000000 -5.210801
RightHandThumb1 -24.326973 -0.000000 -32.862282
LeftUpLeg -9.852208 15.135933 1.525901
LeftLeg 55.791067 -0.000000 -0.000000
LeftFoot 37.027116 15.139742 -18.416595
LeftToeBase 29.123895 -0.000000 -0.000000
RightUpLeg -15.299034 -2.675385 2.556178
RightLeg 0.194567 -0.000000 -0.000000
RightFoot -9.051786 -13.479249 -4.687527
RightToeBase -0.322264 -0.000000 0.000000
2130
root -15.657544 32.897903 -4.600497 21.639709 31.462801 7.355214
Spine -20.715762 6.909157 3.192272
Head 10.896122 -1.540573 -1.700438
LeftShoulder -14.938817 25.317343 5.802477
LeftArm 19.929028 25.824397 -73.539255
LeftForeArm 8.122164 -0.000000 33.330372
LeftHand -26.267715 -0.000000 -2.182790
LeftHandThumb1 -26.253704 0.000000 33.147579
RightShoulder -18.287609 9.224697 -29.560175
RightArm -16.245455 19.438141 64.638585
RightForeArm -19.757267 0.000000 128.520753
RightHand -13.745010 -0.000000 -5.209554
RightHandThumb1 -24.326973 -0.000000 -32.862282
LeftUpLeg -10.532206 15.213755 1.632354
LeftLeg 58.763432 -0.000000 -0.000000
LeftFoot 36.950879 15.536202 -18.859697
LeftToeBase 28.630948 -0.000000 -0.000000
RightUpLeg -15.291465 -2.975038 2.603382
RightLeg 0.142726 -0.000000 -0.000000
RightFoot -9.078524 -13.298287 -4.668537
RightToeBase -0.351874 -0.000000 0.000000
2131
root -15.661876 32.897021 -4.610918 21.693619 31.598244 7.409848
Spine -20.726646 6.985015 3.191277
Head 10.858506 -1.672988 -1.666527
LeftShoulder -14.942030 25.354780 5.780009
LeftArm 19.957668 25.756802 -73.558407
LeftForeArm 8.339867 -0.000000 33.719956
LeftHand -26.259871 -0.000000 -2.064302
LeftHandThumb1 -26.253704 0.000000 33.147579
RightShoulder -18.284061 9.167964 -29.530035
RightArm -16.246394 19.550254 64.547003
RightForeArm -19.719090 -0.000000 128.573057
RightHand -13.760959 -0.000000 -5.219241
RightHandThumb1 -24.326973 -0.000000 -32.862282
LeftUpLeg -11.237111 15.427508 1.722264
LeftLeg 61.786505 -0.000000 -0.000000
LeftFoot 36.746573 15.634387 -18.825819
LeftToeBase 28.852434 -0.000000 -0.000000
RightUpLeg -15.335309 -3.332053 2.665930
RightLeg 0.151411 -0.000000 -0.000000
RightFoot -9.148613 -13.093708 -4.707004
RightToeBase -0.308864 -0.000000 0.000000
2132
root -15.673963 32.897150 -4.619548 21.760647 31.705754 7.432366
Spine -20.779462 7.092965 3.167868
Head 10.851079 -1.822927 -1.592168
LeftShoulder -14.939691 25.432767 5.776223
LeftArm 20.033633 25.693445 -73.529312
LeftForeArm 8.455611 -0.000000 34.085329
LeftHand -26.304715 0.000000 -2.023336
LeftHandThumb1 -26.253704 0.000000 33.147579
RightShoulder -18.280775 9.124942 -29.481152
RightArm -16.281959 19.685747 64.456939
RightForeArm -19.672032 -0.000000 128.616491
RightHand -13.748869 -0.000000 -5.148119
RightHandThumb1 -24.326973 -0.000000 -32.862282
LeftUpLeg -11.969370 15.695016 1.833790
LeftLeg 64.791589 -0.000000 -0.000000
LeftFoot 36.628311 15.801032 -18.822029
LeftToeBase 29.469831 -0.000000 -0.000000
RightUpLeg -15.164885 -3.039865 2.579403
RightLeg -0.340491 -0.000000 0.000000
RightFoot -8.898716 -13.378941 -4.518864
RightToeBase -0.277355 -0.000000 0.000000
2133
root -15.683046 32.898096 -4.628066 21.848465 31.751502 7.483394
Spine -20.847852 7.229749 3.072722
Head 10.869885 -1.983339 -1.490128
LeftShoulder -14.918440 25.443887 5.812283
LeftArm 19.984601 25.615297 -73.554111
LeftForeArm 8.582833 0.000000 34.452276
LeftHand -26.353037 -0.000000 -2.064729
LeftHandThumb1 -26.253704 0.000000 33.147579
RightShoulder -18.308695 9.064282 -29.411506
RightArm -16.253738 19.765881 64.409587
RightForeArm -19.625008 0.000000 128.613671
RightHand -13.768848 -0.000000 -5.056929
RightHandThumb1 -24.326973 -0.000000 -32.862282
LeftUpLeg -12.647169 15.933531 1.903483
LeftLeg 67.693939 -0.000000 -0.000000
LeftFoot 36.373492 15.973699 -18.862196
LeftToeBase 30.407815 -0.000000 -0.000000
RightUpLeg -15.085269 -2.928044 2.505888
RightLeg -0.662089 -0.000000 0.000000
RightFoot -8.747860 -13.459699 -4.404124
RightToeBase -0.241014 -0.000000 0.000000
2134
root -15.691391 32.900315 -4.636147 21.935234 31.745803 7.528149
Spine -20.931103 7.388528 2.956369
Head 10.922782 -2.141006 -1.343159
LeftShoulder -14.923566 25.468206 5.855522
LeftArm 19.970189 25.591265 -73.554588
LeftForeArm 8.641314 -0.000000 34.721043
LeftHand -26.316139 -0.000000 -1.981245
LeftHandThumb1 -26.253704 0.000000 33.147579
RightShoulder -18.336676 9.030085 -29.333899
RightArm -16.234091 19.791249 64.360689
RightForeArm -19.615411 -0.000000 128.595009
RightHand -13.753840 -0.000000 -5.074047
RightHandThumb1 -24.326973 -0.000000 -32.862282
LeftUpLeg -13.271111 16.200998 1.930901
LeftLeg 70.511630 -0.000000 -0.000000
LeftFoot 36.331158 15.941330 -18.904770
LeftToeBase 30.337563 -0.000000 -0.000000
RightUpLeg -15.098397 -3.015200 2.499004
RightLeg -0.810395 -0.000000 0.000000
RightFoot -8.666544 -13.380869 -4.433766
RightToeBase -0.183543 -0.000000 0.000000
2135
root -15.700166 32.904659 -4.645940 22.051597 31.685922 7.587688
Spine -21.041186 7.546281 2.800617
Head 11.006877 -2.248810 -1.162205
LeftShoulder -14.961087 25.517161 5.892188
LeftArm 19.967494 25.555551 -73.543472
LeftForeArm 8.673604 0.000000 34.945067
LeftHand -26.294576 -0.000000 -1.885534
LeftHandThumb1 -26.253704 0.000000 33.147579
RightShoulder -18.363542 9.009056 -29.246613
RightArm -16.183432 19.786102 64.345939
RightForeArm -19.610329 0.000000 128.553165
RightHand -13.731118 0.000000 -5.005117
RightHandThumb1 -24.326973 -0.000000 -32.862282
LeftUpLeg -13.895467 16.508837 1.902907
LeftLeg 73.255154 -0.000000 -0.000000
LeftFoot 36.189410 15.988200 -18.967717
LeftToeBase 30.768135 -0.000000 -0.000000
RightUpLeg -15.172520 -3.296799 2.542243
RightLeg -0.920862 -0.000000 0.000000
RightFoot -8.636773 -13.089610 -4.286247
RightToeBase -0.231915 -0.000000 0.000000
